<?xml version="1.0" encoding="UTF-8" standalone="no"?>
<!DOCTYPE svg PUBLIC "-//W3C//DTD SVG 1.1//EN" "http://www.w3.org/Graphics/SVG/1.1/DTD/svg11.dtd">
<svg xmlns="http://www.w3.org/2000/svg" version="1.1" viewBox="0.00 0.00 938.00 938.00">
<path fill="#2171b7" d="
  M 450.63 338.84
  Q 450.83 338.62 451.12 338.60
  Q 454.57 338.45 458.00 338.04
  C 470.81 336.53 483.73 335.46 496.49 333.68
  C 501.52 332.98 505.50 332.54 508.71 336.80
  Q 536.90 374.26 565.16 411.67
  C 569.33 417.19 572.64 418.09 578.34 414.18
  Q 597.49 401.03 617.19 388.71
  C 627.07 382.53 633.92 376.48 639.82 367.52
  Q 659.80 337.16 679.78 306.80
  Q 681.94 303.52 686.89 303.08
  Q 705.84 301.42 724.79 299.81
  Q 731.74 299.22 737.63 299.32
  Q 739.09 299.35 739.12 300.81
  Q 739.37 310.90 739.56 320.75
  C 739.63 324.23 745.36 322.36 747.22 321.87
  Q 756.07 319.55 764.92 317.18
  Q 776.76 314.01 782.72 313.00
  Q 808.77 308.61 834.99 313.79
  C 859.30 318.60 884.19 331.95 898.72 352.28
  C 912.18 371.10 919.64 397.34 921.13 420.49
  C 922.03 434.47 920.03 449.39 913.16 461.81
  Q 912.52 462.97 912.31 461.66
  C 912.17 460.84 911.74 460.32 911.68 459.41
  C 911.47 455.63 910.69 451.42 910.33 448.21
  C 903.35 385.37 868.17 332.53 798.25 333.21
  Q 784.98 333.34 774.22 335.13
  Q 733.61 341.88 697.37 361.37
  C 657.38 382.88 621.65 403.71 586.32 429.11
  Q 562.45 446.26 539.14 464.17
  Q 485.12 505.66 431.05 547.09
  Q 423.73 552.70 415.51 552.50
  Q 406.68 552.28 376.50 552.77
  C 370.00 552.87 364.00 554.94 357.01 558.69
  Q 332.75 571.70 307.48 582.59
  C 276.14 596.08 242.49 605.21 208.75 610.32
  Q 180.78 614.57 156.50 615.24
  Q 141.40 615.67 124.28 612.33
  Q 105.42 608.65 91.68 595.32
  C 87.75 591.50 83.43 585.12 85.99 579.66
  Q 86.69 578.17 91.10 573.36
  Q 100.24 563.40 108.19 557.64
  Q 111.00 555.60 113.46 558.77
  C 146.02 600.58 202.21 596.33 246.71 580.90
  C 261.85 575.66 278.81 568.99 283.01 551.50
  Q 284.90 543.62 284.21 539.01
  C 283.63 535.11 283.46 530.38 281.99 527.13
  C 274.73 511.18 235.73 503.17 220.21 500.22
  Q 204.58 497.26 188.91 494.44
  C 170.24 491.08 150.60 484.32 139.81 467.68
  C 130.08 452.67 127.30 431.36 128.78 414.01
  C 130.48 394.03 139.31 379.78 154.45 367.09
  C 171.80 352.54 192.05 341.81 214.16 337.05
  C 235.03 332.57 255.76 331.64 277.24 334.46
  C 307.84 338.49 341.23 348.52 349.32 382.98
  C 350.47 387.88 347.11 390.04 342.89 392.00
  Q 326.20 399.75 309.45 407.42
  Q 306.35 408.83 303.55 405.69
  Q 290.49 391.07 271.50 385.73
  Q 245.02 378.28 218.80 384.64
  Q 209.55 386.88 203.65 390.15
  C 191.52 396.87 178.84 411.94 182.42 426.94
  C 187.61 448.67 226.97 456.21 245.02 458.82
  Q 259.81 460.96 274.60 463.02
  C 303.21 467.01 329.12 479.86 337.36 509.95
  Q 338.69 514.81 339.82 527.24
  C 340.50 534.75 341.71 538.91 350.40 536.27
  C 357.61 534.07 365.58 532.33 365.54 523.25
  Q 365.34 471.64 365.22 420.02
  C 365.22 417.23 364.69 412.03 365.21 408.08
  A 1.94 1.93 3.4 0 1 367.11 406.40
  L 422.00 405.76
  A 2.26 2.26 0.0 0 1 424.28 408.01
  Q 424.36 425.26 423.87 442.50
  A 166.99 13.63 -84.7 0 0 423.55 471.53
  Q 423.66 481.50 423.49 519.00
  C 423.46 525.28 427.61 523.64 431.00 521.33
  C 437.45 516.94 439.90 513.85 440.29 505.58
  Q 441.19 486.55 441.80 467.50
  C 441.85 465.91 442.25 464.33 442.26 462.83
  C 442.31 452.50 443.08 440.84 443.32 431.87
  Q 443.54 423.87 443.87 415.86
  Q 444.37 403.86 444.87 391.86
  Q 445.20 383.86 445.64 375.85
  C 446.24 364.70 446.38 352.06 447.17 342.00
  Q 447.37 339.42 449.91 339.19
  Q 450.34 339.15 450.63 338.84
  Z
  M 500.80 415.00
  A 4.15 4.15 0.0 0 0 493.30 417.44
  L 493.25 465.52
  A 4.15 4.15 0.0 0 0 499.95 468.79
  L 522.26 451.35
  A 4.15 4.15 0.0 0 0 523.06 445.64
  L 500.80 415.00
  Z"
/>
<rect fill="#2171b7" x="-31.26" y="-25.22" transform="translate(394.34,371.61) rotate(0.6)" width="62.52" height="50.44" rx="3.63"/>
<path fill="#1dc690" d="
  M 436.05 588.52
  Q 434.89 587.28 433.11 588.37
  C 431.30 589.47 431.38 590.93 431.25 592.83
  Q 430.27 607.28 429.81 621.75
  C 429.67 626.18 425.41 626.98 422.00 626.99
  Q 399.25 627.01 376.50 627.00
  C 373.51 627.00 368.93 626.95 368.88 622.82
  Q 368.74 610.93 369.55 599.07
  C 369.91 593.69 367.00 590.86 361.73 593.44
  C 315.36 616.16 269.68 638.90 219.00 652.03
  C 195.13 658.21 172.19 660.23 146.98 659.01
  C 92.47 656.36 36.83 631.45 23.74 573.09
  C 9.87 511.26 51.00 445.62 94.89 404.59
  Q 96.48 403.10 98.11 404.56
  L 99.05 405.40
  Q 100.50 406.71 99.30 408.25
  Q 94.08 414.92 89.20 421.19
  C 53.90 466.50 21.52 529.44 49.70 586.74
  C 67.70 623.36 119.01 635.44 155.82 636.16
  C 158.43 636.21 161.50 636.92 164.50 636.71
  Q 173.00 636.12 181.48 635.38
  Q 202.60 633.52 223.27 629.01
  C 269.81 618.84 314.92 598.94 357.87 578.73
  C 379.31 568.64 402.67 572.50 424.75 571.99
  C 430.55 571.85 440.54 564.28 445.38 560.91
  Q 481.77 535.61 518.22 510.39
  Q 526.54 504.64 534.52 498.82
  Q 572.35 471.26 610.10 443.60
  C 644.80 418.17 680.89 394.44 719.64 375.61
  Q 740.21 365.61 762.74 361.70
  Q 768.30 360.73 780.32 360.30
  Q 782.92 360.20 787.14 360.68
  C 790.18 361.03 793.51 360.93 796.27 361.31
  Q 810.90 363.29 824.80 368.34
  C 830.78 370.51 839.54 373.49 838.95 380.01
  A 1.21 1.20 9.8 0 1 837.45 381.06
  Q 791.78 369.39 746.57 380.60
  C 740.12 382.20 738.17 386.05 737.61 392.66
  C 736.75 402.69 736.74 412.76 736.18 422.82
  C 735.84 429.11 735.84 435.68 735.51 441.72
  Q 734.79 455.10 734.75 468.50
  C 734.74 469.79 734.34 471.03 734.30 472.17
  C 733.89 482.21 734.17 492.97 733.76 502.25
  C 733.50 508.26 733.03 514.35 733.02 520.25
  C 732.97 537.96 733.55 555.84 732.19 573.51
  C 731.74 579.46 729.60 583.41 723.50 584.10
  Q 705.51 586.13 687.76 589.77
  Q 682.05 590.95 682.02 585.26
  Q 681.96 570.01 682.22 554.78
  C 682.23 554.11 682.75 553.35 682.77 552.75
  Q 683.05 542.12 683.10 522.94
  C 683.10 521.65 683.76 520.40 683.78 519.25
  Q 684.02 504.80 684.17 490.34
  C 684.19 488.55 684.75 486.60 684.80 485.00
  Q 685.03 476.45 685.11 455.50
  C 685.12 454.35 685.81 452.88 685.82 451.47
  Q 685.96 434.93 686.34 418.84
  Q 686.36 417.78 685.91 416.81
  Q 683.95 412.66 679.69 414.90
  Q 654.06 428.38 637.05 451.81
  C 622.40 471.99 608.90 492.95 594.67 513.43
  C 592.67 516.30 589.72 519.94 586.13 520.32
  C 578.44 521.15 571.39 507.34 567.83 501.68
  C 564.84 496.94 561.02 499.87 557.44 502.50
  Q 527.00 524.90 496.67 547.45
  C 492.88 550.27 489.80 552.75 489.18 557.78
  Q 488.62 562.37 488.73 567.00
  C 488.78 569.30 488.29 571.64 488.26 573.68
  Q 487.94 593.78 487.92 613.88
  C 487.91 619.01 484.16 619.79 480.00 620.31
  Q 461.07 622.66 442.12 624.88
  Q 434.93 625.73 434.96 618.26
  C 434.98 611.85 435.65 605.46 435.81 599.02
  Q 435.93 594.19 436.34 589.36
  Q 436.38 588.88 436.05 588.52
  Z"
/>
</svg>
